# Geometry extracted from "Low Poly FPS Rifle and Hands" by Robin Lamb (CC0).
# https://opengameart.org/content/low-poly-fps-rifle-and-hands
# Right hand only; metres; +Y up and -Z forward.
mtllib jjkvr_hand_right.mtl
o jjkvr_hand_right
v 0.009981 -0.009311 0.026134
v 0.010309 0.000738 0.029726
v 0.000633 0.027107 -0.011964
v 0.000097 0.010711 -0.017825
v 0.022699 0.011076 -0.020911
v 0.000259 0.017439 -0.031771
v 0.018593 0.017735 -0.034274
v 0.023235 0.027472 -0.015050
v 0.025925 0.000990 0.027594
v 0.025597 -0.009059 0.024002
v 0.009386 -0.027547 0.019615
v 0.025002 -0.027295 0.017483
v 0.039455 -0.064027 0.150512
v 0.014466 -0.064431 0.153924
v -0.000875 -0.019044 -0.028462
v 0.021728 -0.018679 -0.031548
v 0.009763 -0.016006 0.023740
v 0.014959 -0.049343 0.159318
v 0.015245 -0.040590 0.162447
v 0.022003 -0.010233 -0.028529
v 0.022342 0.000152 -0.024816
v 0.025379 -0.015754 0.021608
v 0.025171 -0.022119 0.019333
v -0.000260 -0.000213 -0.021730
v -0.001062 0.002381 -0.029305
v -0.015451 0.000911 -0.027373
v -0.014824 -0.001117 -0.021451
v 0.009555 -0.022371 0.021465
v -0.000599 -0.010598 -0.025443
v 0.039948 -0.048939 0.155906
v 0.039676 -0.057260 0.152931
v 0.019599 0.014243 -0.031823
v 0.000057 0.013927 -0.029155
v 0.021051 -0.017355 -0.034975
v 0.021323 -0.009045 -0.032005
v 0.040663 -0.027049 0.163731
v 0.040234 -0.040187 0.159035
v 0.000693 0.030739 -0.027017
v 0.019027 0.031035 -0.029520
v -0.014591 0.026945 -0.013071
v -0.015065 0.012419 -0.018264
v -0.000251 0.004482 -0.032531
v 0.019291 0.004798 -0.035199
v -0.017124 0.000682 -0.021436
v -0.017116 0.005035 -0.031450
v -0.001393 -0.007756 -0.032929
v 0.021002 0.002738 -0.032318
v 0.020671 -0.007400 -0.035942
v -0.001184 -0.017714 -0.031939
v -0.000913 -0.009405 -0.028969
v -0.014132 -0.011850 -0.025389
v -0.014311 -0.017329 -0.027348
v 0.015674 -0.027453 0.167143
v 0.014688 -0.057664 0.156343
v -0.014537 0.030162 -0.026407
v -0.014922 0.018379 -0.030619
v -0.016793 0.010810 -0.017816
v -0.016830 0.013792 -0.028320
v -0.015089 -0.009235 -0.024353
v -0.015710 -0.007013 -0.030206
v -0.014336 -0.011076 -0.027677
v -0.014512 -0.016466 -0.029604
vt 0.562500 0.000000
vt 0.625000 0.000000
vt 0.625000 0.250000
vt 0.562500 0.250000
vt 0.562500 0.500000
vt 0.562500 0.250000
vt 0.562500 0.500000
vt 0.625000 0.500000
vt 0.625000 0.750000
vt 0.562500 0.750000
vt 0.125000 0.750000
vt 0.375000 0.750000
vt 0.375000 0.750000
vt 0.125000 0.750000
vt 0.125000 0.500000
vt 0.375000 0.500000
vt 0.875000 0.500000
vt 0.875000 0.750000
vt 0.500000 0.000000
vt 0.500000 0.000000
vt 0.562500 0.000000
vt 0.437500 0.500000
vt 0.500000 0.500000
vt 0.500000 0.750000
vt 0.437500 0.750000
vt 0.500000 0.250000
vt 0.500000 0.250000
vt 0.500000 0.250000
vt 0.500000 0.250000
vt 0.437500 0.000000
vt 0.437500 0.250000
vt 0.500000 0.750000
vt 0.437500 0.750000
vt 0.562500 0.500000
vt 0.562500 0.250000
vt 0.375000 0.000000
vt 0.375000 0.250000
vt 0.375000 0.500000
vt 0.437500 0.500000
vt 0.625000 0.750000
vt 0.562500 0.750000
vt 0.625000 0.250000
vt 0.625000 0.500000
vt 0.875000 0.500000
vt 0.625000 0.250000
vt 0.562500 0.250000
vt 0.500000 0.250000
vt 0.500000 0.500000
vt 0.500000 0.250000
vt 0.500000 0.250000
vt 0.437500 0.250000
vt 0.500000 0.500000
vt 0.437500 0.500000
vt 0.375000 0.250000
vt 0.437500 0.250000
vt 0.125000 0.500000
vt 0.437500 0.250000
vt 0.375000 0.250000
vt 0.625000 1.000000
vt 0.562500 1.000000
vt 0.500000 1.000000
vt 0.437500 1.000000
vt 0.375000 1.000000
vt 0.375000 0.000000
vt 0.437500 0.000000
vt 0.875000 0.750000
vt 0.625000 0.000000
vt 0.625000 0.250000
vt 0.562500 0.250000
vt 0.875000 0.500000
vt 0.875000 0.500000
vt 0.562500 0.250000
vt 0.562500 0.250000
vt 0.437500 0.250000
vt 0.437500 0.250000
vt 0.437500 0.250000
vt 0.375000 0.250000
vt 0.125000 0.500000
vt 0.125000 0.500000
vn -0.978600 -0.040200 0.201700
vn -0.044800 -0.899600 -0.434500
vn 0.997600 -0.008200 -0.068100
vn -0.020500 -0.964300 -0.264000
vn -0.007700 -0.985000 -0.172600
vn 0.057800 0.849700 0.524000
vn -0.998900 0.017400 0.042600
vn -0.052200 0.943000 0.328500
vn 0.994300 0.005600 -0.106500
vn 0.021700 0.961800 0.273000
vn -0.978600 -0.040200 0.201800
vn 0.982900 0.032700 -0.181300
vn -0.132700 0.337500 -0.931900
vn 0.962400 0.063100 -0.264300
vn 0.016300 0.972000 0.234600
vn -0.064800 -0.334000 0.940300
vn -0.055500 -0.915600 -0.398100
vn -0.039600 -0.916300 -0.398400
vn 0.964600 0.060200 -0.256600
vn -0.032900 -0.935600 -0.351600
vn 0.028600 0.946600 0.321200
vn 0.985600 0.027400 -0.166600
vn -0.033300 -0.934400 -0.354600
vn 0.028100 0.947600 0.318200
vn 0.034900 -0.337400 0.940700
vn 0.132700 -0.337500 0.931900
vn 0.011600 0.979600 0.200500
vn -0.999500 0.031400 0.003600
vn -0.027400 0.971800 0.234300
vn -0.050400 0.337600 -0.939900
vn -0.088500 -0.896700 -0.433600
vn -0.999500 0.028500 0.011600
vn -0.001500 -0.336600 0.941700
vn -0.049200 0.337600 -0.940000
vn 0.005800 0.962000 0.273100
vn -0.994600 -0.004600 0.103700
vn 0.038900 -0.337500 0.940500
vn -0.113500 -0.932800 -0.342000
vn -0.159100 0.336900 -0.928000
vn -0.996000 0.000700 0.088900
vn -0.085800 0.941400 0.326200
vn -0.146900 -0.928100 -0.342100
vn -0.131700 0.337500 -0.932100
usemtl jjkvr_hand
s off
f 1/1/1 2/2/1 3/3/1 4/4/1
f 5/5/2 4/4/2 6/6/2 7/7/2
f 5/5/3 8/8/3 9/9/3 10/10/3
f 11/11/4 12/12/4 13/13/4 14/14/4
f 15/15/5 16/16/5 12/12/5 11/11/5
f 8/8/6 3/17/6 2/18/6 9/9/6
f 1/1/7 17/19/7 18/20/7 19/21/7
f 20/22/3 21/23/3 22/24/3 23/25/3
f 24/26/8 25/27/8 26/28/8 27/29/8
f 28/30/1 17/19/1 24/26/1 29/31/1
f 23/25/9 22/24/9 30/32/9 31/33/9
f 21/23/3 5/5/3 10/10/3 22/24/3
f 4/4/10 5/5/10 32/34/10 33/35/10
f 17/19/11 1/1/11 4/4/11 24/26/11
f 11/36/11 28/30/11 29/31/11 15/37/11
f 20/22/12 16/16/12 34/38/12 35/39/12
f 16/16/3 20/22/3 23/25/3 12/12/3
f 10/10/9 9/9/9 36/40/9 37/41/9
f 6/6/13 38/42/13 39/43/13 7/7/13
f 8/8/14 5/5/14 7/7/14 39/43/14
f 3/17/15 8/8/15 39/43/15 38/44/15
f 4/4/16 3/3/16 40/45/16 41/46/16
f 42/47/13 33/35/13 32/34/13 43/48/13
f 42/47/17 24/26/17 44/49/17 45/50/17
f 21/23/18 24/26/18 42/47/18 43/48/18
f 5/5/19 21/23/19 43/48/19 32/34/19
f 46/51/13 25/27/13 47/52/13 48/53/13
f 20/22/20 29/31/20 46/51/20 48/53/20
f 24/26/21 21/23/21 47/52/21 25/27/21
f 21/23/22 20/22/22 48/53/22 47/52/22
f 49/54/13 50/55/13 35/39/13 34/38/13
f 16/16/23 15/15/23 49/56/23 34/38/23
f 29/31/24 20/22/24 35/39/24 50/55/24
f 15/37/25 29/31/25 51/57/25 52/58/25
f 37/41/26 36/40/26 53/59/26 19/60/26
f 31/33/26 30/32/26 18/61/26 54/62/26
f 30/32/26 37/41/26 19/60/26 18/61/26
f 13/13/26 31/33/26 54/62/26 14/63/26
f 28/30/7 11/36/7 14/64/7 54/65/7
f 9/9/27 2/18/27 53/66/27 36/40/27
f 2/2/7 1/1/7 19/21/7 53/67/7
f 22/24/9 10/10/9 37/41/9 30/32/9
f 17/19/7 28/30/7 54/65/7 18/20/7
f 12/12/9 23/25/9 31/33/9 13/13/9
f 41/46/28 40/45/28 55/68/28 56/69/28
f 3/17/29 38/44/29 55/70/29 40/71/29
f 38/42/30 6/6/30 56/69/30 55/68/30
f 6/6/31 4/4/31 41/46/31 56/69/31
f 44/49/32 57/72/32 58/73/32 45/50/32
f 24/26/33 4/4/33 57/72/33 44/49/33
f 33/35/34 42/47/34 45/50/34 58/73/34
f 4/4/35 33/35/35 58/73/35 57/72/35
f 59/74/36 27/29/36 26/28/36 60/75/36
f 29/31/37 24/26/37 27/29/37 59/74/37
f 46/51/38 29/31/38 59/74/38 60/75/38
f 25/27/39 46/51/39 60/75/39 26/28/39
f 52/58/40 51/57/40 61/76/40 62/77/40
f 29/31/41 50/55/41 61/76/41 51/57/41
f 49/56/42 15/15/42 52/78/42 62/79/42
f 50/55/43 49/54/43 62/77/43 61/76/43
